<svg xmlns="http://www.w3.org/2000/svg" width="285" height="135">
<path style="fill: none; stroke:none;" d="M0 0L0 135L285 135L285 0L0 0z"/>
<path style="fill:#ed1d25; stroke:none;" d="M231 11C233.746 17.5959 239.769 26.3134 237.486 33.8302C235.578 40.1152 229.566 44.9298 227 51C220.85 47.5666 216.448 46.7683 210 50L212 37L203 37L196.345 69.9992L192 81C181.098 84.7121 170.894 90.427 160 94.3079C127.293 105.959 92.6048 114.537 58 117.83C45.1917 119.049 32.7189 116.105 20 116L20 117C42.4839 121.36 63.3363 120.789 86 119L86 120L76 122L76 123L113 119L113 120L109 121C118.623 125.029 136.991 119.001 147 117C182.086 109.984 224.154 98.5274 249.91 71.9606C270.891 50.3185 262.436 16.6038 231 11z"/>
<path style=" stroke:none;" d="M39 64L30 64C30.4065 81.2923 59.5721 84.1754 61.7708 67C62.908 58.1171 55.3336 55.6268 49.0162 52.1767C47.1875 51.178 43.0367 48.762 44.9707 46.1451C48.4964 41.3745 58.8254 49.9817 64 50C63.68 36.7631 42.5053 30.4669 36.0278 43.0154C28.1681 58.2415 49.8837 56.7001 51.2299 66.0471C52.2835 73.3619 40.4995 69.1832 39 64z"/>
<path style="fill:#ed1d25; stroke:none;" d="M132 37L124 78L133 78L136 61L156 61L157 53L138 53C141.903 38.6228 157.209 51.405 161 37L132 37M161 45C168.248 44.9944 170.129 44.1095 172 37C164.752 37.0056 162.871 37.8905 161 45z"/>
<path style="fill:#010101; stroke:none;" d="M237.333 37.6667L237.667 38.3333L237.333 37.6667M235 43L236 44L235 43z"/>
<path style="fill:#231f21; stroke:none;" d="M107 51L108 48L99 48L93 78L102 78C102.709 74.3438 105.891 50.8604 113.512 55.8819C117.734 58.6638 111.845 73.9061 111 78C129.916 77.9854 128.507 36.7474 107 51z"/>
<path style="fill:#ed1d25; stroke:none;" d="M185 68L185 71L166 69C169.105 78.1009 183.108 81.78 190.772 75.3472C195.282 71.5613 194.881 64.2278 189.941 61.0856C186.748 59.0545 182.574 58.163 179 57L179 55L196 56C191.748 35.1148 157.238 56.1557 176.019 64.8951C178.872 66.2227 181.974 67.1741 185 68z"/>
<path style="fill:#231f21; stroke:none;" d="M68 48C66.9778 60.5147 57.2208 84.3021 80 76L88 78L94 48L85 48C84.283 56.7778 82.3203 67.5798 74 72L77 48L68 48z"/>
<path style="fill:#ed1d25; stroke:none;" d="M155 78C167.567 77.9556 168.543 58.6104 169 48C156.139 48.0455 155.462 67.2773 155 78z"/>
<path style="fill: white; stroke:none;" d="M206 69C208.679 67.4738 221.943 59.2178 215.396 55.1366C208.733 50.9835 206.155 65.44 206 69M192 79L192 80L196 79L192 79M88 118L89 119L88 118M113 118L113 119L116 119L113 118z"/>
</svg>