<svg id="visual" viewBox="0 0 900 600" width="900" height="600" xmlns="http://www.w3.org/2000/svg" xmlns:xlink="http://www.w3.org/1999/xlink" version="1.1"><rect x="0" y="0" width="900" height="600" fill="#FFFFFF"></rect><defs><linearGradient id="grad1_0" x1="33.3%" y1="0%" x2="100%" y2="100%"><stop offset="20%" stop-color="#ffffff" stop-opacity="1"></stop><stop offset="80%" stop-color="#ffffff" stop-opacity="1"></stop></linearGradient></defs><defs><linearGradient id="grad2_0" x1="0%" y1="0%" x2="66.7%" y2="100%"><stop offset="20%" stop-color="#ffffff" stop-opacity="1"></stop><stop offset="80%" stop-color="#ffffff" stop-opacity="1"></stop></linearGradient></defs><g transform="translate(900, 0)"><path d="M0 351.5C-29.3 326.5 -58.6 301.5 -95.8 294.8C-132.9 288.1 -177.9 299.7 -206.6 284.4C-235.4 269.1 -247.8 227 -267 194C-286.1 161 -312 137.1 -327.2 106.3C-342.4 75.5 -347 37.7 -351.5 0L0 0Z" fill="#4FACF7"></path></g><g transform="translate(0, 600)"><path d="M0 -351.5C35.9 -346.5 71.8 -341.4 107.8 -331.9C143.9 -322.4 180.1 -308.6 206.6 -284.4C233.2 -260.3 250.2 -225.8 267.8 -194.6C285.4 -163.3 303.6 -135.1 317.7 -103.2C331.7 -71.3 341.6 -35.7 351.5 0L0 0Z" fill="#4FACF7"></path></g></svg>